<svg xmlns="http://www.w3.org/2000/svg" viewBox="0 0 531.99 540"><defs><style>.cls-1{fill:#432818;}</style></defs><g id="Livello_2" data-name="Livello 2"><g id="Livello_1-2" data-name="Livello 1"><path class="cls-1" d="M499.66,19.14C487.41,6.88,468.79,0,451.46,0s-31.94,6.88-44.2,19.14l-39.59,39.6L22.34,412.07c-.05.05-.07.12-.12.17a18.59,18.59,0,0,0-5.66,10.38l0,.2L.11,529.24a9.33,9.33,0,0,0,10.64,10.65l106.62-16.45a18.77,18.77,0,0,0,10.46-5.72l.1-.06L473.26,164.33l39.59-39.6a65.32,65.32,0,0,0,0-92.39ZM110.4,456H84V429.59L400.67,104.93l26.41,26.4ZM75,412.23a20,20,0,0,0-7.66-2.78l-14.92-1L374.28,78.52l13.19,13.2Zm-40,13.59L65.33,428v28A18.68,18.68,0,0,0,84,474.66l27.94-.67,2.39,31L20.5,519.5Zm96.65,61.79L130.48,472a18.19,18.19,0,0,0-2.63-7.08L440.27,144.53l13.2,13.19ZM466.67,144.53l-79.2-79.2,26.39-26.4,79.2,79.19Zm38.93-40.26L427.72,26.39a46.69,46.69,0,0,1,58.74,5.94l13.2,13.2a46.69,46.69,0,0,1,5.94,58.74Z"/></g></g></svg>